{
    "asset" : {
        "generator" : "Khronos glTF Blender I/O v1.6.16",
        "version" : "2.0"
    },
    "scene" : 0,
    "scenes" : [
        {
            "name" : "Scene",
            "nodes" : [
                0,
                1,
                2,
                3
            ]
        }
    ],
    "nodes" : [
        {
            "mesh" : 0,
            "name" : "Cube",
            "scale" : [
                5,
                5,
                5
            ],
            "translation" : [
                0,
                5,
                0
            ]
        },
        {
            "mesh" : 1,
            "name" : "Cube.001",
            "scale" : [
                5.608259677886963,
                5.608259677886963,
                5.608259677886963
            ],
            "translation" : [
                0,
                5.962013244628906,
                0
            ]
        },
        {
            "mesh" : 2,
            "name" : "Cube.002",
            "rotation" : [
                0,
                0,
                0.9999973773956299,
                -0.002289932919666171
            ],
            "scale" : [
                5.05863094329834,
                5.05863094329834,
                5.05863094329834
            ],
            "translation" : [
                0.02515704557299614,
                -0.6148471832275391,
                0.02022494561970234
            ]
        },
        {
            "mesh" : 3,
            "name" : "Plane.001",
            "scale" : [
                4.159146785736084,
                4.159146785736084,
                4.159146785736084
            ]
        }
    ],
    "materials" : [
        {
            "doubleSided" : true,
            "name" : "Bun Material",
            "pbrMetallicRoughness" : {
                "baseColorFactor" : [
                    0.8000000715255737,
                    0.30791208148002625,
                    0,
                    1
                ],
                "metallicFactor" : 0,
                "roughnessFactor" : 0.8166332244873047
            }
        },
        {
            "doubleSided" : true,
            "name" : "Meat",
            "pbrMetallicRoughness" : {
                "baseColorFactor" : [
                    0.17609818279743195,
                    0.03940196335315704,
                    0.030090119689702988,
                    1
                ],
                "metallicFactor" : 0.7134268879890442,
                "roughnessFactor" : 0.5
            }
        },
        {
            "doubleSided" : true,
            "name" : "Material.004",
            "pbrMetallicRoughness" : {
                "baseColorFactor" : [
                    0.8000000715255737,
                    0.20234230160713196,
                    0,
                    1
                ],
                "metallicFactor" : 0,
                "roughnessFactor" : 0.3148893415927887
            }
        }
    ],
    "meshes" : [
        {
            "name" : "Cube.006",
            "primitives" : [
                {
                    "attributes" : {
                        "POSITION" : 0,
                        "NORMAL" : 1
                    },
                    "indices" : 2,
                    "material" : 0
                }
            ]
        },
        {
            "name" : "Cube.008",
            "primitives" : [
                {
                    "attributes" : {
                        "POSITION" : 3,
                        "NORMAL" : 4
                    },
                    "indices" : 5,
                    "material" : 1
                }
            ]
        },
        {
            "name" : "Cube.009",
            "primitives" : [
                {
                    "attributes" : {
                        "POSITION" : 6,
                        "NORMAL" : 7
                    },
                    "indices" : 2,
                    "material" : 0
                }
            ]
        },
        {
            "name" : "Plane.005",
            "primitives" : [
                {
                    "attributes" : {
                        "POSITION" : 8,
                        "NORMAL" : 9
                    },
                    "indices" : 10,
                    "material" : 2
                }
            ]
        }
    ],
    "accessors" : [
        {
            "bufferView" : 0,
            "componentType" : 5126,
            "count" : 2562,
            "max" : [
                0.9166666865348816,
                -0.6978329420089722,
                0.9166667461395264
            ],
            "min" : [
                -0.9166666865348816,
                -0.9774290323257446,
                -0.9166666865348816
            ],
            "type" : "VEC3"
        },
        {
            "bufferView" : 1,
            "componentType" : 5126,
            "count" : 2562,
            "type" : "VEC3"
        },
        {
            "bufferView" : 2,
            "componentType" : 5123,
            "count" : 15360,
            "type" : "SCALAR"
        },
        {
            "bufferView" : 3,
            "componentType" : 5126,
            "count" : 1538,
            "max" : [
                0.8395062685012817,
                -0.5155923366546631,
                0.8395062685012817
            ],
            "min" : [
                -0.8395062685012817,
                -0.9577363133430481,
                -0.8395062685012817
            ],
            "type" : "VEC3"
        },
        {
            "bufferView" : 4,
            "componentType" : 5126,
            "count" : 1538,
            "type" : "VEC3"
        },
        {
            "bufferView" : 5,
            "componentType" : 5123,
            "count" : 9216,
            "type" : "SCALAR"
        },
        {
            "bufferView" : 6,
            "componentType" : 5126,
            "count" : 2562,
            "max" : [
                0.9165207743644714,
                -0.6998097896575928,
                0.9166667461395264
            ],
            "min" : [
                -0.9168127179145813,
                -1.1412886381149292,
                -0.9166666865348816
            ],
            "type" : "VEC3"
        },
        {
            "bufferView" : 7,
            "componentType" : 5126,
            "count" : 2562,
            "type" : "VEC3"
        },
        {
            "bufferView" : 8,
            "componentType" : 5126,
            "count" : 382,
            "max" : [
                1.0628770589828491,
                0.7704929113388062,
                1.0141764879226685
            ],
            "min" : [
                -1.0449728965759277,
                0.5044076442718506,
                -0.990703821182251
            ],
            "type" : "VEC3"
        },
        {
            "bufferView" : 9,
            "componentType" : 5126,
            "count" : 382,
            "type" : "VEC3"
        },
        {
            "bufferView" : 10,
            "componentType" : 5123,
            "count" : 1716,
            "type" : "SCALAR"
        }
    ],
    "bufferViews" : [
        {
            "buffer" : 0,
            "byteLength" : 30744,
            "byteOffset" : 0
        },
        {
            "buffer" : 0,
            "byteLength" : 30744,
            "byteOffset" : 30744
        },
        {
            "buffer" : 0,
            "byteLength" : 30720,
            "byteOffset" : 61488
        },
        {
            "buffer" : 0,
            "byteLength" : 18456,
            "byteOffset" : 92208
        },
        {
            "buffer" : 0,
            "byteLength" : 18456,
            "byteOffset" : 110664
        },
        {
            "buffer" : 0,
            "byteLength" : 18432,
            "byteOffset" : 129120
        },
        {
            "buffer" : 0,
            "byteLength" : 30744,
            "byteOffset" : 147552
        },
        {
            "buffer" : 0,
            "byteLength" : 30744,
            "byteOffset" : 178296
        },
        {
            "buffer" : 0,
            "byteLength" : 4584,
            "byteOffset" : 209040
        },
        {
            "buffer" : 0,
            "byteLength" : 4584,
            "byteOffset" : 213624
        },
        {
            "buffer" : 0,
            "byteLength" : 3432,
            "byteOffset" : 218208
        }
    ],
    "buffers" : [
        {
            "byteLength" : 221640,
            "uri" : "data:application/octet-stream;base64,"
        }
    ]
}
