{"asset":{"generator":"Khronos glTF Spline I/O v0.0.1","version":"2.0"},"scenes":[{"nodes":[0]}],"nodes":[{"name":"Untitled","children":[1,2,3,4,5,6,7,8]},{"name":"Label","matrix":[1,0,0,0,0,1,0,0,0,0,1,0,2.3333333333331154,-450,20,1],"mesh":0},{"name":"Rectangle 2","matrix":[1,0,0,0,0,1,0,0,0,0,1,0,2.3333333333331154,-450,20,1],"mesh":1},{"name":"Pack","matrix":[1,0,0,0,0,1,0,0,0,0,1,0,2.3333333333331154,-450,0,1],"mesh":2},{"name":"Bottom","matrix":[1,0,0,0,0,1,0,0,0,0,1,0,2,-693.5,5,1],"mesh":3},{"name":"Top","matrix":[1,0,0,0,0,1,0,0,0,0,1,0,2,-206.5,5,1],"mesh":4},{"name":"Rectangle","matrix":[1,0,0,0,0,1,0,0,0,0,1,0,954.7107980368514,-29.5,0,1],"mesh":5},{"name":"image","matrix":[1,0,0,0,0,1,0,0,0,0,1,0,387.9999999999999,-29.5,0,1],"mesh":6},{"name":"Default Camera","camera":0,"translation":[-73.77459074750658,-125.80513525952239,856.1426281128441],"rotation":[-0.05117596740730256,0.022127708263280917,0.0011341718314738169,0.9984438384512163],"children":[9]},{"name":"Default Directional Light","translation":[850000,1300000,1000000],"rotation":[-0.45895513091666534,0.1367267597249462,-0.25064115022945466,0.8413352451859125],"extensions":{"KHR_lights_punctual":{"light":0}}}],"cameras":[{"type":"orthographic","orthographic":{"xmag":2880,"ymag":1595,"zfar":50000,"znear":-50000}}],"meshes":[{"primitives":[{"attributes":{"POSITION":1,"NORMAL":2,"TEXCOORD_0":3},"indices":0}]},{"primitives":[{"attributes":{"POSITION":5,"NORMAL":6,"TEXCOORD_0":7},"indices":4}]},{"primitives":[{"attributes":{"POSITION":8,"TEXCOORD_0":9,"NORMAL":10}}]},{"primitives":[{"attributes":{"POSITION":11,"TEXCOORD_0":12,"NORMAL":13}}]},{"primitives":[{"attributes":{"POSITION":14,"TEXCOORD_0":15,"NORMAL":16}}]},{"primitives":[{"attributes":{"POSITION":17,"TEXCOORD_0":18,"NORMAL":19}}]},{"primitives":[{"attributes":{"POSITION":20,"TEXCOORD_0":21,"NORMAL":22}}]}],"buffers":[{"uri":"data:application/octet-stream;base64,","byteLength":140},{"uri":"data:application/octet-stream;base64,","byteLength":140},{"uri":"data:application/octet-stream;base64,","byteLength":16512},{"uri":"data:application/octet-stream;base64,","byteLength":100992},{"uri":"data:application/octet-stream;base64,","byteLength":100992},{"uri":"data:application/octet-stream;base64,","byteLength":1097856},{"uri":"data:application/octet-stream;base64,","byteLength":1097856}],"bufferViews":[{"buffer":0,"byteOffset":0,"byteLength":12,"target":34963},{"buffer":0,"byteOffset":12,"byteLength":48,"target":34962},{"buffer":0,"byteOffset":60,"byteLength":48,"target":34962},{"buffer":0,"byteOffset":108,"byteLength":32,"target":34962},{"buffer":1,"byteOffset":0,"byteLength":12,"target":34963},{"buffer":1,"byteOffset":12,"byteLength":48,"target":34962},{"buffer":1,"byteOffset":60,"byteLength":48,"target":34962},{"buffer":1,"byteOffset":108,"byteLength":32,"target":34962},{"buffer":2,"byteOffset":0,"byteLength":6192,"target":34962},{"buffer":2,"byteOffset":6192,"byteLength":4128,"target":34962},{"buffer":2,"byteOffset":10320,"byteLength":6192,"target":34962},{"buffer":3,"byteOffset":0,"byteLength":37872,"target":34962},{"buffer":3,"byteOffset":37872,"byteLength":25248,"target":34962},{"buffer":3,"byteOffset":63120,"byteLength":37872,"target":34962},{"buffer":4,"byteOffset":0,"byteLength":37872,"target":34962},{"buffer":4,"byteOffset":37872,"byteLength":25248,"target":34962},{"buffer":4,"byteOffset":63120,"byteLength":37872,"target":34962},{"buffer":5,"byteOffset":0,"byteLength":411696,"target":34962},{"buffer":5,"byteOffset":411696,"byteLength":274464,"target":34962},{"buffer":5,"byteOffset":686160,"byteLength":411696,"target":34962},{"buffer":6,"byteOffset":0,"byteLength":411696,"target":34962},{"buffer":6,"byteOffset":411696,"byteLength":274464,"target":34962},{"buffer":6,"byteOffset":686160,"byteLength":411696,"target":34962}],"accessors":[{"bufferView":0,"byteOffset":0,"componentType":5123,"count":6,"type":"SCALAR","min":[0],"max":[3]},{"bufferView":1,"byteOffset":0,"componentType":5126,"count":4,"type":"VEC3","min":[-145,-225,0],"max":[145,225,0]},{"bufferView":2,"byteOffset":0,"componentType":5126,"count":4,"type":"VEC3","min":[0,0,1],"max":[0,0,1]},{"bufferView":3,"byteOffset":0,"componentType":5126,"count":4,"type":"VEC2","min":[0,0],"max":[1,1]},{"bufferView":4,"byteOffset":0,"componentType":5123,"count":6,"type":"SCALAR","min":[0],"max":[3]},{"bufferView":5,"byteOffset":0,"componentType":5126,"count":4,"type":"VEC3","min":[-145,-225,0],"max":[145,225,0]},{"bufferView":6,"byteOffset":0,"componentType":5126,"count":4,"type":"VEC3","min":[0,0,1],"max":[0,0,1]},{"bufferView":7,"byteOffset":0,"componentType":5126,"count":4,"type":"VEC2","min":[0,0],"max":[1,1]},{"bufferView":8,"byteOffset":0,"componentType":5126,"count":516,"type":"VEC3","min":[-145,-225,0],"max":[145,225,20]},{"bufferView":9,"byteOffset":0,"componentType":5126,"count":516,"type":"VEC2","min":[-0.27586206793785095,0],"max":[1.2758620977401733,1]},{"bufferView":10,"byteOffset":0,"componentType":5126,"count":516,"type":"VEC3","min":[-1,-1,-1],"max":[1,1,1]},{"bufferView":11,"byteOffset":0,"componentType":5126,"count":3156,"type":"VEC3","min":[-145,-18.5,0],"max":[145,18.5,10]},{"bufferView":12,"byteOffset":0,"componentType":5126,"count":3156,"type":"VEC2","min":[0,0],"max":[1,1]},{"bufferView":13,"byteOffset":0,"componentType":5126,"count":3156,"type":"VEC3","min":[-1,-1,-1],"max":[1,1,1]},{"bufferView":14,"byteOffset":0,"componentType":5126,"count":3156,"type":"VEC3","min":[-145,-18.5,0],"max":[145,18.5,10]},{"bufferView":15,"byteOffset":0,"componentType":5126,"count":3156,"type":"VEC2","min":[0,0],"max":[1,1]},{"bufferView":16,"byteOffset":0,"componentType":5126,"count":3156,"type":"VEC3","min":[-1,-1,-1],"max":[1,1,1]},{"bufferView":17,"byteOffset":0,"componentType":5126,"count":34308,"type":"VEC3","min":[-156.5,-236.25,-10],"max":[156.5,236.25,12]},{"bufferView":18,"byteOffset":0,"componentType":5126,"count":34308,"type":"VEC2","min":[-0.30629128217697144,0],"max":[1.3062913417816162,1]},{"bufferView":19,"byteOffset":0,"componentType":5126,"count":34308,"type":"VEC3","min":[-1,-1,-1],"max":[1,1,1]},{"bufferView":20,"byteOffset":0,"componentType":5126,"count":34308,"type":"VEC3","min":[-147.5,-227.25,-1],"max":[147.5,227.25,3]},{"bufferView":21,"byteOffset":0,"componentType":5126,"count":34308,"type":"VEC2","min":[-0.27556654810905457,0],"max":[1.275566577911377,1]},{"bufferView":22,"byteOffset":0,"componentType":5126,"count":34308,"type":"VEC3","min":[-1,-1,-1],"max":[1,1,1]}],"extensions":{"KHR_lights_punctual":{"lights":[{"type":"directional","name":"Default Directional Light","color":[1,1,1],"intensity":2.9}]}},"extensionsUsed":["KHR_lights_punctual"]}