{"asset":{"generator":"Khronos glTF Spline I/O v0.0.1","version":"2.0"},"scenes":[{"nodes":[0]}],"nodes":[{"name":"Rocket Pack","children":[1,2]},{"name":"Pack","matrix":[1,0,0,0,0,1,0,0,0,0,1,0,0,0,15,1],"children":[3,4,5,6]},{"name":"Default Camera","camera":0,"translation":[-25.72938767174235,154.57526713466785,1016.3654021865582],"rotation":[-0.05857361192415069,-0.01997991744346019,-0.0011725443530039127,0.99808244149712],"children":[7]},{"name":"Label","matrix":[1,0,0,0,0,1,0,0,0,0,1,0,0.16666666666655772,0,5,1],"mesh":0},{"name":"Pack","matrix":[1,0,0,0,0,1,0,0,0,0,1,0,0.16666666666655772,0,-15,1],"mesh":1},{"name":"Bottom","matrix":[1,0,0,0,0,1,0,0,0,0,1,0,-0.16666666666655772,-243.5,-10,1],"mesh":2},{"name":"Top","matrix":[1,0,0,0,0,1,0,0,0,0,1,0,-0.16666666666655772,243.5,-10,1],"mesh":3},{"name":"Default Directional Light","translation":[850000,1300000,1000000],"rotation":[-0.45895513091666534,0.1367267597249462,-0.25064115022945466,0.8413352451859125],"extensions":{"KHR_lights_punctual":{"light":0}}}],"cameras":[{"type":"orthographic","orthographic":{"xmag":1920,"ymag":1134,"zfar":50000,"znear":-50000}}],"meshes":[{"primitives":[{"attributes":{"POSITION":1,"NORMAL":2,"TEXCOORD_0":3},"indices":0}]},{"primitives":[{"attributes":{"POSITION":4,"TEXCOORD_0":5,"NORMAL":6}}]},{"primitives":[{"attributes":{"POSITION":7,"TEXCOORD_0":8,"NORMAL":9}}]},{"primitives":[{"attributes":{"POSITION":10,"TEXCOORD_0":11,"NORMAL":12}}]}],"buffers":[{"uri":"data:application/octet-stream;base64,","byteLength":140},{"uri":"data:application/octet-stream;base64,","byteLength":16512},{"uri":"data:application/octet-stream;base64,","byteLength":100992},{"uri":"data:application/octet-stream;base64,","byteLength":100992}],"bufferViews":[{"buffer":0,"byteOffset":0,"byteLength":12,"target":34963},{"buffer":0,"byteOffset":12,"byteLength":48,"target":34962},{"buffer":0,"byteOffset":60,"byteLength":48,"target":34962},{"buffer":0,"byteOffset":108,"byteLength":32,"target":34962},{"buffer":1,"byteOffset":0,"byteLength":6192,"target":34962},{"buffer":1,"byteOffset":6192,"byteLength":4128,"target":34962},{"buffer":1,"byteOffset":10320,"byteLength":6192,"target":34962},{"buffer":2,"byteOffset":0,"byteLength":37872,"target":34962},{"buffer":2,"byteOffset":37872,"byteLength":25248,"target":34962},{"buffer":2,"byteOffset":63120,"byteLength":37872,"target":34962},{"buffer":3,"byteOffset":0,"byteLength":37872,"target":34962},{"buffer":3,"byteOffset":37872,"byteLength":25248,"target":34962},{"buffer":3,"byteOffset":63120,"byteLength":37872,"target":34962}],"accessors":[{"bufferView":0,"byteOffset":0,"componentType":5123,"count":6,"type":"SCALAR","min":[0],"max":[3]},{"bufferView":1,"byteOffset":0,"componentType":5126,"count":4,"type":"VEC3","min":[-145,-225,0],"max":[145,225,0]},{"bufferView":2,"byteOffset":0,"componentType":5126,"count":4,"type":"VEC3","min":[0,0,1],"max":[0,0,1]},{"bufferView":3,"byteOffset":0,"componentType":5126,"count":4,"type":"VEC2","min":[0,0],"max":[1,1]},{"bufferView":4,"byteOffset":0,"componentType":5126,"count":516,"type":"VEC3","min":[-145,-225,0],"max":[145,225,20]},{"bufferView":5,"byteOffset":0,"componentType":5126,"count":516,"type":"VEC2","min":[-0.27586206793785095,0],"max":[1.2758620977401733,1]},{"bufferView":6,"byteOffset":0,"componentType":5126,"count":516,"type":"VEC3","min":[-1,-1,-1],"max":[1,1,1]},{"bufferView":7,"byteOffset":0,"componentType":5126,"count":3156,"type":"VEC3","min":[-145,-18.5,0],"max":[145,18.5,10]},{"bufferView":8,"byteOffset":0,"componentType":5126,"count":3156,"type":"VEC2","min":[0,0],"max":[1,1]},{"bufferView":9,"byteOffset":0,"componentType":5126,"count":3156,"type":"VEC3","min":[-1,-1,-1],"max":[1,1,1]},{"bufferView":10,"byteOffset":0,"componentType":5126,"count":3156,"type":"VEC3","min":[-145,-18.5,0],"max":[145,18.5,10]},{"bufferView":11,"byteOffset":0,"componentType":5126,"count":3156,"type":"VEC2","min":[0,0],"max":[1,1]},{"bufferView":12,"byteOffset":0,"componentType":5126,"count":3156,"type":"VEC3","min":[-1,-1,-1],"max":[1,1,1]}],"extensions":{"KHR_lights_punctual":{"lights":[{"type":"directional","name":"Default Directional Light","color":[1,1,1],"intensity":2.9}]}},"extensionsUsed":["KHR_lights_punctual"]}